<svg width="1280" height="350" viewBox="0 0 1280 350" fill="none" xmlns="http://www.w3.org/2000/svg">
<rect width="1280" height="350" rx="40" fill="#17141F"/>
<path d="M475.819 211.224C477.209 211.224 478.413 211.733 479.431 212.751C480.449 213.768 480.957 214.972 480.958 216.362C480.957 217.751 480.449 218.955 479.431 219.973C478.413 220.991 477.209 221.499 475.819 221.5C474.43 221.499 473.226 220.991 472.208 219.973C471.19 218.955 470.682 217.751 470.681 216.362C470.682 214.972 471.19 213.768 472.208 212.751C473.226 211.733 474.43 211.224 475.819 211.224Z" fill="#701DD7"/>
<path d="M451.692 210.255C452.436 210.254 453.064 210.512 453.579 211.026C454.093 211.54 454.354 212.172 454.353 212.916C454.354 213.659 454.093 214.288 453.579 214.802C453.064 215.316 452.436 215.573 451.692 215.573C450.949 215.573 450.321 215.317 449.806 214.802C449.291 214.288 449.031 213.659 449.031 212.916C449.031 212.172 449.291 211.54 449.806 211.026C450.32 210.512 450.949 210.254 451.692 210.255Z" fill="#701DD7"/>
<path d="M499.947 210.255C500.69 210.254 501.319 210.512 501.833 211.026C502.348 211.54 502.608 212.172 502.607 212.916C502.608 213.659 502.348 214.288 501.833 214.802C501.318 215.317 500.69 215.573 499.947 215.573C499.203 215.573 498.575 215.316 498.06 214.802C497.546 214.288 497.285 213.659 497.286 212.916C497.285 212.172 497.545 211.54 498.06 211.026C498.575 210.512 499.203 210.254 499.947 210.255Z" fill="#701DD7"/>
<path d="M462.031 197.435C463.42 197.436 464.625 197.945 465.642 198.962C466.66 199.98 467.172 201.184 467.173 202.573C467.172 203.963 466.66 205.167 465.642 206.185C464.624 207.203 463.42 207.715 462.031 207.715C460.642 207.714 459.437 207.202 458.42 206.185C457.403 205.167 456.893 203.962 456.893 202.573C456.894 201.184 457.402 199.98 458.42 198.962C459.437 197.944 460.642 197.436 462.031 197.435Z" fill="#701DD7"/>
<path d="M489.608 197.435C490.997 197.436 492.202 197.944 493.219 198.962C494.237 199.98 494.745 201.184 494.746 202.573C494.746 203.962 494.236 205.167 493.219 206.185C492.202 207.202 490.997 207.714 489.608 207.715C488.218 207.715 487.015 207.203 485.997 206.185C484.979 205.167 484.467 203.963 484.466 202.573C484.467 201.184 484.979 199.98 485.997 198.962C487.014 197.945 488.219 197.436 489.608 197.435Z" fill="#701DD7"/>
<path d="M437.904 196.47C438.648 196.469 439.279 196.726 439.794 197.241C440.308 197.755 440.565 198.384 440.565 199.127C440.565 199.871 440.309 200.503 439.794 201.017C439.279 201.532 438.647 201.789 437.904 201.788C437.161 201.788 436.532 201.531 436.017 201.017C435.503 200.503 435.246 199.871 435.247 199.127C435.246 198.384 435.503 197.755 436.017 197.241C436.532 196.726 437.161 196.47 437.904 196.47Z" fill="#701DD7"/>
<path d="M513.735 196.47C514.478 196.47 515.107 196.726 515.622 197.241C516.136 197.755 516.393 198.384 516.392 199.127C516.393 199.871 516.136 200.503 515.622 201.017C515.107 201.531 514.478 201.788 513.735 201.788C512.991 201.789 512.36 201.532 511.845 201.017C511.33 200.503 511.074 199.871 511.074 199.127C511.074 198.384 511.331 197.755 511.845 197.241C512.36 196.726 512.991 196.469 513.735 196.47Z" fill="#701DD7"/>
<path d="M475.819 181.217C477.885 181.217 479.664 181.961 481.156 183.452C482.647 184.943 483.391 186.724 483.391 188.789C483.391 190.853 482.646 192.63 481.156 194.121C479.664 195.612 477.885 196.36 475.819 196.36C473.754 196.36 471.974 195.612 470.483 194.121C468.993 192.63 468.248 190.853 468.248 188.789C468.247 186.724 468.992 184.943 470.483 183.452C471.974 181.961 473.754 181.217 475.819 181.217Z" fill="#701DD7"/>
<path d="M448.246 183.65C449.636 183.651 450.84 184.159 451.857 185.177C452.875 186.195 453.384 187.399 453.384 188.789C453.383 190.178 452.875 191.382 451.857 192.4C450.84 193.418 449.635 193.926 448.246 193.927C446.857 193.926 445.653 193.417 444.635 192.4C443.617 191.382 443.109 190.178 443.108 188.789C443.109 187.399 443.617 186.195 444.635 185.177C445.653 184.159 446.856 183.651 448.246 183.65Z" fill="#701DD7"/>
<path d="M503.393 183.65C504.782 183.651 505.986 184.159 507.004 185.177C508.022 186.195 508.53 187.399 508.531 188.789C508.53 190.178 508.022 191.382 507.004 192.4C505.986 193.417 504.782 193.926 503.393 193.927C502.003 193.926 500.799 193.418 499.781 192.4C498.764 191.382 498.255 190.178 498.255 188.789C498.255 187.399 498.764 186.195 499.781 185.177C500.799 184.159 502.003 183.651 503.393 183.65Z" fill="#701DD7"/>
<path d="M462.031 167.429C464.096 167.428 465.876 168.176 467.367 169.667C468.858 171.158 469.603 172.935 469.602 175C469.603 177.065 468.859 178.845 467.367 180.336C465.876 181.827 464.096 182.572 462.031 182.571C459.967 182.572 458.189 181.827 456.698 180.336C455.207 178.845 454.463 177.065 454.463 175C454.463 172.935 455.207 171.158 456.698 169.667C458.189 168.176 459.966 167.428 462.031 167.429Z" fill="#701DD7"/>
<path d="M489.608 167.429C491.672 167.428 493.45 168.176 494.941 169.667C496.431 171.158 497.176 172.935 497.176 175C497.176 177.065 496.432 178.845 494.941 180.336C493.45 181.827 491.672 182.572 489.608 182.571C487.543 182.572 485.763 181.827 484.272 180.336C482.78 178.845 482.036 177.065 482.037 175C482.036 172.935 482.781 171.158 484.272 169.667C485.763 168.176 487.543 167.428 489.608 167.429Z" fill="#701DD7"/>
<path d="M434.458 169.862C435.847 169.862 437.051 170.371 438.069 171.389C439.087 172.406 439.599 173.611 439.599 175C439.599 176.39 439.087 177.593 438.069 178.611C437.051 179.629 435.847 180.141 434.458 180.142C433.069 180.141 431.864 179.629 430.846 178.611C429.829 177.594 429.32 176.389 429.319 175C429.32 173.611 429.829 172.406 430.846 171.389C431.864 170.371 433.069 169.863 434.458 169.862Z" fill="#701DD7"/>
<path d="M517.181 169.862C518.57 169.863 519.775 170.371 520.793 171.389C521.81 172.406 522.319 173.611 522.319 175C522.319 176.389 521.81 177.594 520.793 178.611C519.775 179.629 518.57 180.141 517.181 180.142C515.792 180.141 514.588 179.629 513.57 178.611C512.552 177.593 512.04 176.39 512.04 175C512.04 173.611 512.552 172.406 513.57 171.389C514.588 170.371 515.792 169.862 517.181 169.862Z" fill="#701DD7"/>
<path d="M475.819 153.644C477.885 153.643 479.664 154.388 481.156 155.879C482.647 157.37 483.391 159.15 483.391 161.215C483.391 163.279 482.646 165.057 481.156 166.548C479.664 168.039 477.885 168.787 475.819 168.787C473.754 168.787 471.974 168.039 470.483 166.548C468.993 165.057 468.248 163.279 468.248 161.215C468.247 159.15 468.992 157.37 470.483 155.879C471.974 154.388 473.754 153.643 475.819 153.644Z" fill="#701DD7"/>
<path d="M448.246 156.073C449.636 156.074 450.84 156.586 451.857 157.604C452.875 158.622 453.384 159.826 453.384 161.215C453.383 162.604 452.875 163.809 451.857 164.827C450.84 165.844 449.635 166.353 448.246 166.353C446.857 166.353 445.653 165.844 444.635 164.827C443.617 163.809 443.109 162.604 443.108 161.215C443.109 159.826 443.617 158.622 444.635 157.604C445.653 156.586 446.856 156.074 448.246 156.073Z" fill="#701DD7"/>
<path d="M503.393 156.073C504.782 156.074 505.986 156.586 507.004 157.604C508.022 158.622 508.53 159.826 508.531 161.215C508.53 162.604 508.022 163.809 507.004 164.827C505.986 165.844 504.782 166.353 503.393 166.353C502.004 166.353 500.799 165.844 499.781 164.827C498.764 163.809 498.256 162.604 498.255 161.215C498.255 159.826 498.764 158.622 499.781 157.604C500.799 156.586 502.003 156.074 503.393 156.073Z" fill="#701DD7"/>
<path d="M437.904 148.216C438.648 148.215 439.279 148.472 439.794 148.986C440.308 149.501 440.565 150.13 440.565 150.873C440.565 151.617 440.309 152.248 439.794 152.763C439.279 153.277 438.648 153.534 437.904 153.534C437.161 153.534 436.532 153.277 436.017 152.763C435.503 152.248 435.246 151.617 435.247 150.873C435.246 150.13 435.503 149.501 436.017 148.986C436.532 148.472 437.161 148.216 437.904 148.216Z" fill="#701DD7"/>
<path d="M513.735 148.216C514.478 148.216 515.107 148.472 515.622 148.986C516.136 149.501 516.393 150.13 516.392 150.873C516.393 151.617 516.136 152.248 515.622 152.763C515.107 153.277 514.478 153.534 513.735 153.534C512.991 153.534 512.36 153.277 511.845 152.763C511.33 152.248 511.074 151.617 511.074 150.873C511.074 150.13 511.331 149.501 511.845 148.986C512.36 148.472 512.991 148.215 513.735 148.216Z" fill="#701DD7"/>
<path d="M462.031 142.289C463.42 142.289 464.625 142.798 465.642 143.815C466.66 144.833 467.172 146.037 467.173 147.427C467.172 148.816 466.66 150.02 465.642 151.038C464.624 152.056 463.42 152.564 462.031 152.565C460.642 152.564 459.437 152.056 458.42 151.038C457.402 150.02 456.893 148.816 456.893 147.427C456.894 146.038 457.402 144.833 458.42 143.815C459.437 142.798 460.642 142.289 462.031 142.289Z" fill="#701DD7"/>
<path d="M489.608 142.289C490.997 142.289 492.202 142.798 493.219 143.815C494.237 144.833 494.745 146.038 494.746 147.427C494.746 148.816 494.237 150.02 493.219 151.038C492.202 152.056 490.997 152.564 489.608 152.565C488.219 152.564 487.014 152.056 485.997 151.038C484.979 150.02 484.467 148.816 484.466 147.427C484.467 146.037 484.979 144.833 485.997 143.815C487.014 142.798 488.219 142.289 489.608 142.289Z" fill="#701DD7"/>
<path d="M451.692 134.427C452.436 134.427 453.064 134.684 453.579 135.198C454.093 135.713 454.354 136.344 454.353 137.088C454.353 137.831 454.093 138.46 453.579 138.974C453.064 139.489 452.436 139.746 451.692 139.745C450.949 139.746 450.32 139.489 449.806 138.974C449.291 138.46 449.031 137.831 449.031 137.088C449.031 136.344 449.291 135.713 449.806 135.198C450.32 134.684 450.949 134.427 451.692 134.427Z" fill="#701DD7"/>
<path d="M499.947 134.427C500.69 134.427 501.319 134.684 501.833 135.198C502.348 135.713 502.608 136.344 502.607 137.088C502.608 137.831 502.348 138.46 501.833 138.974C501.318 139.489 500.69 139.746 499.947 139.745C499.203 139.746 498.575 139.489 498.06 138.974C497.546 138.46 497.285 137.831 497.286 137.088C497.285 136.344 497.545 135.713 498.06 135.198C498.575 134.684 499.203 134.427 499.947 134.427Z" fill="#701DD7"/>
<path d="M475.819 128.5C477.209 128.501 478.413 129.012 479.431 130.03C480.448 131.048 480.957 132.253 480.958 133.642C480.957 135.031 480.448 136.236 479.431 137.253C478.413 138.271 477.209 138.779 475.819 138.78C474.43 138.779 473.226 138.271 472.208 137.253C471.191 136.236 470.682 135.031 470.681 133.642C470.682 132.253 471.191 131.048 472.208 130.03C473.226 129.012 474.43 128.501 475.819 128.5Z" fill="#701DD7"/>
<path d="M571.557 206H559.137V175H552.93V162.601H559.137V150.198H565.347V144H583.975V156.399H571.557V162.601H583.975V175H571.557V206Z" fill="#F0F1F4"/>
<path fill-rule="evenodd" clip-rule="evenodd" d="M627.42 162.601H633.63V206H621.21V199.799H615.003V206H596.376V199.799H590.166V181.201H596.376V175H621.21V168.799H590.166V162.601H596.376V156.399H627.42V162.601ZM602.586 193.601H621.21V187.399H602.586V193.601Z" fill="#F0F1F4"/>
<path d="M683.317 175H677.107V181.201H670.9V187.399H664.69V193.601H683.317V206H639.853V193.601H646.063V187.399H652.273V181.201H658.48V175H664.69V168.799H639.853V156.399H683.317V175Z" fill="#F0F1F4"/>
<path d="M720.587 156.399H708.167V162.601H720.587V175H708.167V206H695.75V175H689.543V162.601H695.75V150.198H701.96V144H720.587V156.399Z" fill="#F0F1F4"/>
<path fill-rule="evenodd" clip-rule="evenodd" d="M764.033 162.601H770.243V206H757.823V199.799H751.616V206H732.989V199.799H726.779V181.201H732.989V175H757.823V168.799H726.779V162.601H732.989V156.399H764.033V162.601ZM739.196 193.601H757.823V187.399H739.196V193.601Z" fill="#F0F1F4"/>
<path d="M819.93 175H813.72V181.201H807.513V187.399H801.303V193.601H819.93V206H776.466V193.601H782.676V187.399H788.886V181.201H795.093V175H801.303V168.799H776.466V156.399H819.93V175Z" fill="#F0F1F4"/>
</svg>
