<svg width="80" height="26" viewBox="0 0 80 26" xmlns="http://www.w3.org/2000/svg">
<rect x="3.75342" y="1.83936" width="20.1574" height="20.1574" rx="2.11772" transform="rotate(10.7317 3.75342 1.83936)" fill="var(--color-violet-500"/>
<path d="M35.5747 7.67839H39.473L40.6543 -4.94346e-06H49.3171L48.8446 2.79572H43.2138L42.4262 7.67839H48.0964L47.6633 10.4741H41.9931L39.6305 25.3978H36.6379L39.0005 10.4741H35.1416L35.5747 7.67839ZM58.8997 14.9236L59.6085 10.4741H50.2369L50.7094 7.63901H63.1918L60.396 25.3978H47.9531L49.6069 14.9236H58.8997ZM58.4272 17.7981H52.0876L51.3395 22.4839H57.7184L58.4272 17.7981ZM66.7892 22.5627H75.0189L74.5463 25.3978H62.379L62.8122 22.5627L74.0738 10.5922H64.7022L65.2141 7.63901H77.6965L77.2239 10.7104L66.7892 22.5627Z" fill="currentColor"/>
<rect x="16.7222" y="7.73224" width="10.8703" height="10.8703" transform="rotate(85.0215 16.7222 7.73224)" fill="var(--color-surface-pressed"/>
</svg>
