<svg width="225" height="175" viewBox="0 0 225 175" fill="none" xmlns="http://www.w3.org/2000/svg">
<path d="M6.03396 75.0339C6.96064 63.7583 7.42399 58.1204 11.22 54.832C15.0161 51.5436 20.6624 51.8889 31.955 52.5795L94.9205 56.4298C106.213 57.1204 111.859 57.4657 115.08 61.1831C118.3 64.9005 117.837 70.5384 116.91 81.8141L112.842 131.315C111.915 142.591 111.452 148.228 107.656 151.517C103.86 154.805 98.2133 154.46 86.9207 153.769L23.9552 149.919C12.6626 149.228 7.01629 148.883 3.79601 145.166C0.575728 141.448 1.03907 135.81 1.96576 124.535L6.03396 75.0339Z" fill="#121118"/>
<path d="M12.1054 60.3179C12.6798 51.1416 12.967 46.5535 15.9961 43.8812C19.0252 41.209 23.6134 41.4962 32.7896 42.0706L121.197 47.6044C130.373 48.1788 134.961 48.466 137.633 51.4951C140.305 54.5243 140.018 59.1124 139.444 68.2886L135.382 133.174C134.808 142.351 134.521 146.939 131.492 149.611C128.462 152.283 123.874 151.996 114.698 151.422L26.2911 145.888C17.1149 145.314 12.5268 145.026 9.85451 141.997C7.18226 138.968 7.46945 134.38 8.04384 125.204L12.1054 60.3179Z" fill="#1B1726"/>
<path d="M42.254 86.4799L47.0596 86.7807L47.1415 85.4728L48.5768 84.9825C49.9392 84.5182 51.1079 83.856 52.0828 82.9959C53.0578 82.1358 53.7839 81.1456 54.2611 80.0254L35.9512 78.8792C36.285 80.0503 36.8742 81.1253 37.7188 82.1044C38.5633 83.0835 39.6379 83.8836 40.9426 84.5047L42.3359 85.172L42.254 86.4799ZM39.8301 88.6182L39.9577 86.5804C37.9015 85.6069 36.2657 84.2196 35.0502 82.4183C33.8347 80.617 33.2803 78.6205 33.387 76.4287L35.8202 76.581L36.4237 66.9393L57.862 65.9148L57.7534 67.6485L44.0322 68.3163L43.898 70.4606L57.524 71.3135L57.4155 73.0472L43.7895 72.1943L43.4849 77.0607L57.1109 77.9137C56.9535 80.1023 56.157 82.0143 54.7213 83.6496C53.2856 85.2849 51.487 86.4573 49.3256 87.1668L49.198 89.2046L39.8301 88.6182ZM40.9173 70.274L42.1643 70.3521L42.2871 68.3903L41.0306 68.4643L40.9173 70.274ZM37.967 70.0894L39.214 70.1674L39.3159 68.5402L38.0607 68.5923L37.967 70.0894ZM40.5042 76.8742L41.7512 76.9522L42.0558 72.0858L40.8088 72.0077L40.5042 76.8742ZM37.5539 76.6895L38.8009 76.7675L39.1055 71.9011L37.8585 71.823L37.5539 76.6895Z" fill="#484857"/>
<path d="M27.8143 121.556C27.9825 118.868 30.2977 116.826 32.9853 116.994L92.1937 120.7C94.8813 120.868 96.9237 123.183 96.7555 125.871V125.871C96.5873 128.559 94.2721 130.601 91.5844 130.433L32.3761 126.727C29.6884 126.559 27.646 124.243 27.8143 121.556V121.556Z" fill="#221D2F"/>
<path d="M39.5156 66.3138C37.161 55.2478 35.9836 49.7149 38.6738 45.4738C41.364 41.2328 46.8712 39.94 57.8854 37.3543L137.876 18.5757C148.89 15.99 154.397 14.6972 158.551 17.3317C162.704 19.9661 163.881 25.4991 166.236 36.5651L176.573 85.1452C178.928 96.2111 180.105 101.744 177.415 105.985C174.725 110.226 169.217 111.519 158.203 114.105L78.2125 132.883C67.1983 135.469 61.6911 136.762 57.5379 134.127C53.3848 131.493 52.2074 125.96 49.8527 114.894L39.5156 66.3138Z" fill="#121118"/>
<path d="M40.7443 51.1499C38.8238 42.1585 37.8636 37.6628 40.0603 34.273C42.257 30.8831 46.7527 29.9229 55.7441 28.0024L142.37 9.50023C151.362 7.57979 155.857 6.61956 159.247 8.81623C162.637 11.0129 163.597 15.5086 165.518 24.5L179.097 88.0788C181.018 97.0702 181.978 101.566 179.781 104.956C177.585 108.346 173.089 109.306 164.098 111.226L77.4714 129.729C68.48 131.649 63.9843 132.609 60.5944 130.413C57.2045 128.216 56.2443 123.72 54.3239 114.729L40.7443 51.1499Z" fill="#1B1726"/>
<path d="M76.1646 60.41L66.8311 62.4035L66.1516 59.222L75.4851 57.2285L73.4916 47.895L76.673 47.2155L78.6665 56.549L88 54.5555L88.6795 57.7369L79.3461 59.7304L81.3396 69.0639L78.1581 69.7434L76.1646 60.41Z" fill="#484857"/>
<path d="M72.3791 105.886C71.8166 103.253 73.4955 100.662 76.129 100.1L134.145 87.7082C136.778 87.1457 139.369 88.8246 139.932 91.4581V91.4581C140.494 94.0917 138.815 96.6825 136.182 97.245L78.1659 109.636C75.5324 110.199 72.9415 108.52 72.3791 105.886V105.886Z" fill="#221D2F"/>
<path d="M88.171 71.3065C89.8974 60.1253 90.7606 54.5346 94.7809 51.5246C98.8013 48.5146 104.409 49.2606 115.624 50.7527L196.99 61.578C208.205 63.0701 213.812 63.8161 216.76 67.7532C219.707 71.6903 218.844 77.2809 217.118 88.4621L207.988 147.595C206.261 158.776 205.398 164.367 201.378 167.377C197.357 170.387 191.75 169.641 180.535 168.149L99.1688 157.323C87.9539 155.831 82.3464 155.085 79.3987 151.148C76.451 147.211 77.3143 141.621 79.0407 130.439L88.171 71.3065Z" fill="#121118"/>
<path d="M95.1919 66.8173C96.3929 57.7019 96.9935 53.1442 100.198 50.6855C103.403 48.2269 107.961 48.8274 117.076 50.0285L204.897 61.6002C214.013 62.8013 218.571 63.4018 221.029 66.6067C223.488 69.8117 222.887 74.3694 221.686 83.4848L213.193 147.94C211.992 157.056 211.392 161.614 208.187 164.072C204.982 166.531 200.424 165.93 191.309 164.729L103.488 153.158C94.3723 151.957 89.8146 151.356 87.3559 148.151C84.8973 144.946 85.4978 140.388 86.6989 131.273L95.1919 66.8173Z" fill="#1B1726"/>
<path d="M123.479 94.9815L128.253 95.6105L128.424 94.3113L129.89 93.9204C131.281 93.5504 132.492 92.9697 133.523 92.1783C134.555 91.387 135.347 90.4488 135.9 89.3639L117.711 86.9673C117.964 88.1584 118.479 89.2712 119.254 90.3058C120.03 91.3404 121.047 92.2122 122.306 92.9211L123.65 93.6823L123.479 94.9815ZM120.915 96.9489L121.181 94.9246C119.197 93.8127 117.66 92.3166 116.57 90.4363C115.481 88.5561 115.065 86.5263 115.321 84.3469L117.738 84.6654L119 75.0877L140.458 75.5329L140.231 77.2551L126.496 76.9822L126.216 79.1123L139.751 80.8958L139.525 82.618L125.989 80.8345L125.352 85.6686L138.888 87.4522C138.581 89.6249 137.655 91.4779 136.111 93.0111C134.567 94.5443 132.692 95.5909 130.487 96.1508L130.22 98.1751L120.915 96.9489ZM123.255 78.7221L124.494 78.8854L124.75 76.9366L123.492 76.9244L123.255 78.7221ZM120.324 78.336L121.563 78.4992L121.776 76.8828L120.52 76.8489L120.324 78.336ZM122.391 85.2785L123.63 85.4417L124.267 80.6075L123.028 80.4443L122.391 85.2785ZM119.46 84.8923L120.699 85.0555L121.336 80.2214L120.097 80.0581L119.46 84.8923Z" fill="#484857"/>
<path d="M106.673 128.987C107.024 126.317 109.474 124.438 112.144 124.79L170.96 132.539C173.629 132.891 175.509 135.341 175.157 138.011V138.011C174.805 140.68 172.355 142.56 169.686 142.208L110.87 134.458C108.2 134.106 106.321 131.657 106.673 128.987V128.987Z" fill="#221D2F"/>
</svg>
