<svg width="274" height="175" viewBox="0 0 274 175" fill="none" xmlns="http://www.w3.org/2000/svg">
<path d="M24.974 30.757C26.5797 19.5579 27.3826 13.9583 31.3702 10.9051C35.3579 7.85186 40.973 8.53739 52.2034 9.90843L197.236 27.6147C208.467 28.9857 214.082 29.6713 217.072 33.5763C220.062 37.4814 219.259 43.081 217.653 54.2802L215.085 72.1884C213.48 83.3875 212.677 88.9871 208.689 92.0403C204.701 95.0935 199.086 94.408 187.856 93.037L42.8231 75.3307C31.5928 73.9597 25.9777 73.2741 22.9877 69.3691C19.9977 65.464 20.8006 59.8644 22.4063 48.6652L24.974 30.757Z" fill="#17141F"/>
<path d="M26.4002 36.8927C27.469 25.6296 28.0034 19.998 31.833 16.8457C35.6626 13.6933 41.2919 14.2513 52.5505 15.3672L200.23 30.0048C211.489 31.1207 217.118 31.6787 220.284 35.5244C223.449 39.37 222.915 45.0016 221.846 56.2647L220.713 68.2034C219.644 79.4665 219.11 85.098 215.28 88.2504C211.451 91.4027 205.821 90.8447 194.563 89.7288L46.8829 75.0912C35.6244 73.9753 29.9951 73.4173 26.8296 69.5717C23.664 65.726 24.1985 60.0944 25.2673 48.8313L26.4002 36.8927Z" fill="#1B1726"/>
<g opacity="0.5">
<path d="M49.7164 45.233C49.8918 43.3837 49.9796 42.459 50.1554 41.6928C51.3696 36.402 55.9865 32.6016 61.4121 32.427C62.1977 32.4017 63.1221 32.4933 64.9707 32.6765C66.8193 32.8598 67.7436 32.9514 68.5099 33.1305C73.8015 34.3674 77.6178 39.0037 77.8146 44.4343C77.8431 45.2207 77.7553 46.1454 77.5798 47.9948C77.4043 49.8442 77.3166 50.7688 77.1407 51.535C75.9266 56.8258 71.3096 60.6262 65.8841 60.8009C65.0984 60.8261 64.1741 60.7345 62.3255 60.5513C60.4769 60.3681 59.5526 60.2765 58.7863 60.0973C53.4947 58.8605 49.6784 54.2242 49.4816 48.7935C49.4531 48.0071 49.5409 47.0824 49.7164 45.233Z" fill="#DFDFE7"/>
<path d="M73.217 42.8077L60.2943 53.8182L54.4536 46.4736L56.4975 44.7316L60.6599 49.9652L71.5387 40.6968L73.217 42.8077Z" fill="#1F1F26"/>
</g>
<path d="M93.5018 49.5729C93.8148 46.274 96.7418 43.8647 100.039 44.1916L172.683 51.3918C175.981 51.7187 178.4 54.6579 178.087 57.9568C177.774 61.2557 174.847 63.665 171.55 63.3382L98.9057 56.1379C95.6081 55.8111 93.1887 52.8718 93.5018 49.5729Z" fill="#221D2F"/>
<path d="M16.8127 80.9447C16.0509 69.6567 15.6701 64.0127 18.9344 60.1959C22.1988 56.3792 27.8336 55.8803 39.1033 54.8826L184.644 41.9968C195.913 40.999 201.548 40.5002 205.286 43.6969C209.023 46.8937 209.404 52.5377 210.166 63.8258L211.045 76.8535C211.807 88.1415 212.188 93.7855 208.923 97.6022C205.659 101.419 200.024 101.918 188.755 102.916L43.2142 115.801C31.9446 116.799 26.3098 117.298 22.5722 114.101C18.8345 110.904 18.4536 105.26 17.6919 93.9724L16.8127 80.9447Z" fill="#17141F"/>
<path d="M20.6159 84.0645C19.8542 72.7765 19.4733 67.1324 22.7377 63.3157C26.002 59.499 31.6369 59.0001 42.9065 58.0023L188.447 45.1166C199.716 44.1188 205.351 43.6199 209.089 46.8167C212.827 50.0135 213.207 55.6575 213.969 66.9455L214.774 78.876C215.536 90.1641 215.917 95.8081 212.653 99.6248C209.388 103.441 203.753 103.94 192.484 104.938L46.9434 117.824C35.6738 118.822 30.039 119.321 26.3013 116.124C22.5637 112.927 22.1828 107.283 21.421 95.995L20.6159 84.0645Z" fill="#1B1726"/>
<path d="M45.1609 88.1243C45.0222 86.2698 44.9529 85.3425 44.9972 84.5559C45.3031 79.1319 49.209 74.5711 54.5213 73.4349C55.2917 73.2701 56.2188 73.196 58.0729 73.0479V73.0479C59.927 72.8997 60.854 72.8257 61.6398 72.8661C67.0579 73.145 71.5955 77.0312 72.7041 82.3421C72.8649 83.1124 72.9342 84.0397 73.0729 85.8942V85.8942C73.2116 87.7487 73.2809 88.676 73.2366 89.4627C72.9307 94.8866 69.0248 99.4474 63.7125 100.584C62.942 100.748 62.015 100.823 60.1609 100.971V100.971C58.3068 101.119 57.3798 101.193 56.594 101.152C51.1759 100.874 46.6383 96.9873 45.5297 91.6764C45.3689 90.9061 45.2996 89.9789 45.1609 88.1243V88.1243Z" fill="#121118"/>
<path d="M89.0211 84.6196C88.774 81.3151 91.2514 78.4223 94.5544 78.1584L167.323 72.3443C170.626 72.0804 173.504 74.5453 173.751 77.8498V77.8498C173.998 81.1543 171.521 84.047 168.218 84.3109L95.4493 90.125C92.1462 90.3889 89.2682 87.9241 89.0211 84.6196V84.6196Z" fill="#221D2F"/>
<path d="M29.8601 122.339C29.401 111.035 29.1714 105.382 32.5369 101.654C35.9023 97.9265 41.5485 97.5788 52.8408 96.8832L192.732 88.2667C204.024 87.5711 209.67 87.2234 213.321 90.5191C216.971 93.8148 217.201 99.467 217.66 110.771L218.235 124.932C218.694 136.237 218.924 141.889 215.558 145.617C212.193 149.345 206.547 149.693 195.255 150.388L55.3638 159.005C44.0715 159.7 38.4253 160.048 34.7746 156.752C31.1239 153.457 30.8943 147.804 30.4352 136.5L29.8601 122.339Z" fill="#17141F"/>
<path d="M33.2197 126.788C32.6309 115.49 32.3365 109.84 35.6629 106.135C38.9893 102.43 44.6374 102.115 55.9336 101.486L196.497 93.6596C207.794 93.0306 213.442 92.7161 217.134 96.0307C220.826 99.3452 221.12 104.994 221.709 116.293L222.333 128.271C222.922 139.569 223.217 145.219 219.89 148.924C216.564 152.629 210.916 152.944 199.62 153.573L59.0559 161.399C47.7597 162.028 42.1116 162.343 38.4194 159.028C34.7272 155.714 34.4328 150.065 33.844 138.766L33.2197 126.788Z" fill="#1B1726"/>
<g opacity="0.5">
<path d="M57.5414 129.845C57.7169 127.996 57.8047 127.071 57.9805 126.305C59.1947 121.014 63.8116 117.214 69.2371 117.039C70.0228 117.014 70.9471 117.106 72.7957 117.289V117.289C74.6444 117.472 75.5687 117.564 76.335 117.743C81.6265 118.98 85.4429 123.616 85.6396 129.047C85.6681 129.833 85.5804 130.758 85.4049 132.607V132.607C85.2294 134.456 85.1416 135.381 84.9658 136.147C83.7516 141.438 79.1347 145.239 73.7092 145.413C72.9235 145.438 71.9992 145.347 70.1506 145.164V145.164C68.3019 144.98 67.3776 144.889 66.6113 144.71C61.3198 143.473 57.5034 138.836 57.3067 133.406C57.2782 132.619 57.3659 131.695 57.5414 129.845V129.845Z" fill="#DFDFE7"/>
<path d="M81.0421 127.42L68.1194 138.431L62.2787 131.086L64.3226 129.344L68.485 134.578L79.3638 125.309L81.0421 127.42Z" fill="#1F1F26"/>
</g>
<path d="M101.427 128.999C101.254 125.69 103.797 122.858 107.105 122.674L179.992 118.616C183.301 118.431 186.123 120.965 186.295 124.274V124.274C186.468 127.583 183.925 130.415 180.617 130.599L107.73 134.658C104.421 134.842 101.599 132.309 101.427 128.999V128.999Z" fill="#221D2F"/>
</svg>
